<svg width="34" height="33" viewBox="0 0 34 33" fill="none" xmlns="http://www.w3.org/2000/svg">
<ellipse cx="16.8571" cy="16.9025" rx="16.2857" ry="16.0988" fill="#313131"/>
<path d="M24.1857 11.9296C24.1857 10.7247 23.1098 9.66162 21.8905 9.66162H12.6381C11.4188 9.66162 10.3429 10.7247 10.3429 11.9296V21.0721C10.3429 22.277 11.4188 23.3401 12.6381 23.3401H17.3001V18.1664H15.5788V15.8984H17.3001V14.9771C17.3001 13.4179 18.4477 12.0713 19.8822 12.0713H21.7471V14.3392H19.8822C19.667 14.3392 19.4519 14.5518 19.4519 14.9771V15.8984H21.7471V18.1664H19.4519V23.3401H21.8905C23.1098 23.3401 24.1857 22.277 24.1857 21.0721V11.9296Z" fill="#C7C7C7"/>
</svg>
