<svg width="33" height="33" viewBox="0 0 33 33" fill="none" xmlns="http://www.w3.org/2000/svg">
<ellipse cx="16.7143" cy="16.1007" rx="16.2857" ry="16.1007" fill="#313131"/>
<path d="M8.04265 16.4008L11.7868 17.7807L13.2464 22.4218C13.3099 22.7354 13.6906 22.7982 13.9445 22.61L16.0387 20.9166C16.229 20.7284 16.5464 20.7284 16.8002 20.9166L20.5444 23.6135C20.7982 23.8017 21.179 23.6762 21.2424 23.3626L24.0347 10.1917C24.0981 9.87809 23.7808 9.5645 23.4635 9.68994L8.04265 15.5855C7.66189 15.7109 7.66189 16.2754 8.04265 16.4008ZM13.056 17.0908L20.4174 12.6377C20.5443 12.575 20.6713 12.7632 20.5444 12.8259L14.5156 18.4078C14.3252 18.596 14.1349 18.8469 14.1349 19.1605L13.9445 20.6657C13.9445 20.8539 13.6272 20.9166 13.5637 20.6657L12.8022 17.9061C12.6118 17.5925 12.7387 17.2162 13.056 17.0908Z" fill="#C7C7C7"/>
</svg>
