<svg width="34" height="33" viewBox="0 0 34 33" fill="none" xmlns="http://www.w3.org/2000/svg">
<ellipse cx="16.8572" cy="16.1007" rx="16.2858" ry="16.1007" fill="#313131"/>
<path d="M24.8422 20.2142C24.8422 20.1474 24.7746 20.1474 24.7746 20.0806C24.5041 19.546 23.8957 18.8778 23.0845 18.1427C22.6788 17.8086 22.476 17.5413 22.3408 17.4077C22.138 17.1404 22.138 16.9399 22.2056 16.6726C22.2732 16.4722 22.5436 16.138 23.0168 15.5366C23.2873 15.2025 23.4225 15.0021 23.6253 14.8016C24.6393 13.4651 25.1126 12.5964 24.9774 12.1955L24.9098 12.1287C24.8422 12.0619 24.7746 11.995 24.6393 11.995C24.5041 11.9282 24.3013 11.9282 24.0985 11.995H21.5296C21.462 11.995 21.4619 11.995 21.3267 11.995C21.2591 11.995 21.1915 11.995 21.1915 11.995H21.1239H21.0563L20.9887 12.0618C20.9211 12.1287 20.9211 12.1287 20.9211 12.1955C20.6507 12.9305 20.3127 13.5319 19.9746 14.2002C19.7718 14.5343 19.569 14.8684 19.3662 15.1357C19.1634 15.403 19.0282 15.6035 18.893 15.7371C18.7578 15.8707 18.6226 15.9376 18.555 16.0712C18.4873 16.138 18.3521 16.2049 18.3521 16.138C18.2845 16.138 18.2169 16.138 18.2169 16.0712C18.1493 16.0044 18.0817 15.9376 18.0141 15.8707C17.9465 15.8039 17.9465 15.6703 17.8789 15.5366C17.8789 15.403 17.8789 15.2693 17.8789 15.2025C17.8789 15.1357 17.8789 14.9352 17.8789 14.8016C17.8789 14.6011 17.8789 14.4675 17.8789 14.4006C17.8789 14.2002 17.8789 13.9329 17.8789 13.6656C17.8789 13.3983 17.8789 13.1978 17.8789 13.0642C17.8789 12.9305 17.8789 12.7301 17.8789 12.5964C17.8789 12.396 17.8789 12.2623 17.8789 12.1955C17.8789 12.1287 17.8113 11.995 17.8113 11.9282C17.7437 11.8614 17.6761 11.7946 17.6085 11.7277C17.5409 11.6609 17.4057 11.6609 17.3381 11.5941C17.0001 11.5273 16.5944 11.4604 16.1212 11.4604C15.0395 11.4604 14.2959 11.5273 14.0255 11.6609C13.8903 11.7277 13.755 11.7946 13.6874 11.9282C13.5522 12.0619 13.5522 12.1287 13.6198 12.1287C13.9579 12.1955 14.2283 12.3291 14.3635 12.5296L14.4311 12.6633C14.4987 12.7301 14.4987 12.8637 14.5663 13.0642C14.6339 13.2647 14.6339 13.4651 14.6339 13.7324C14.6339 14.1334 14.6339 14.5343 14.6339 14.8016C14.6339 15.1357 14.5663 15.3362 14.5663 15.5366C14.5663 15.7371 14.4987 15.8707 14.4311 15.9376C14.3635 16.0712 14.3635 16.138 14.2959 16.138C14.2959 16.138 14.2959 16.2049 14.2283 16.2049C14.1607 16.2049 14.0931 16.2717 13.9579 16.2717C13.8903 16.2717 13.755 16.2049 13.6874 16.138C13.5522 16.0712 13.417 15.9376 13.3494 15.8039C13.2142 15.6703 13.079 15.4698 12.9438 15.2025C12.8086 14.9352 12.6058 14.6679 12.4706 14.267L12.3354 13.9997C12.2678 13.8661 12.1325 13.5988 11.9973 13.2647C11.8621 12.9305 11.7269 12.6633 11.5917 12.3291C11.5241 12.1955 11.4565 12.1287 11.3889 12.0618H11.3213C11.3213 12.0618 11.2537 11.995 11.1861 11.995C11.1185 11.995 11.0509 11.9282 10.9833 11.9282H8.5495C8.27909 11.9282 8.14388 11.995 8.07628 12.0618L8.00867 12.1287C8.00867 12.1287 8.00867 12.1955 8.00867 12.2623C8.00867 12.3291 8.00867 12.396 8.07628 12.5296C8.4143 13.3315 8.81992 14.1334 9.22555 14.9352C9.63118 15.6703 10.0368 16.3385 10.3072 16.8063C10.6452 17.274 10.9157 17.7418 11.2537 18.1427C11.5917 18.5437 11.7945 18.8109 11.8621 18.9446C11.9973 19.0782 12.0649 19.145 12.1325 19.2119L12.3354 19.4123C12.4706 19.546 12.6734 19.7465 12.9438 19.9469C13.2142 20.1474 13.5522 20.3479 13.8902 20.5483C14.2283 20.7488 14.6339 20.8824 15.0395 21.0161C15.5128 21.1497 15.9184 21.2166 16.324 21.1497H17.3381C17.5409 21.1497 17.6761 21.0829 17.8113 20.9493L17.8789 20.8824C17.8789 20.8156 17.9465 20.8156 17.9465 20.7488C17.9465 20.682 17.9465 20.6152 17.9465 20.4815C17.9465 20.2142 17.9465 20.0138 18.0141 19.8133C18.0817 19.6128 18.0817 19.4792 18.1493 19.3455C18.2169 19.2119 18.2845 19.1451 18.3521 19.0782C18.4198 19.0114 18.4874 18.9446 18.4874 18.9446H18.555C18.6902 18.8778 18.893 18.9446 19.0282 19.0782C19.231 19.2119 19.4338 19.4123 19.569 19.6128C19.7042 19.8133 19.9071 20.0137 20.1775 20.281C20.4479 20.5483 20.6507 20.7488 20.7859 20.8156L20.9887 20.9493C21.1239 21.0161 21.2591 21.0829 21.462 21.1497C21.6648 21.2166 21.8 21.2166 21.9352 21.2166L24.2337 21.1497C24.4366 21.1497 24.6394 21.0829 24.7746 21.0161C24.9098 20.9493 24.9774 20.8824 24.9774 20.7488C24.9774 20.682 24.9774 20.5483 24.9774 20.4815C24.8422 20.3479 24.8422 20.281 24.8422 20.2142Z" fill="#C7C7C7"/>
</svg>
