<svg width="34" height="33" viewBox="0 0 34 33" fill="none" xmlns="http://www.w3.org/2000/svg">
<ellipse cx="17.0001" cy="16.9025" rx="16.2857" ry="16.0988" fill="#313131"/>
<path d="M22.3587 10.4644H12.4557C11.3376 10.4644 10.4857 11.3063 10.4857 12.4114V22.1994C10.4857 23.3045 11.3376 24.1465 12.4557 24.1465H22.3587C23.4767 24.1465 24.3286 23.3045 24.3286 22.1994V12.4114C24.3286 11.3063 23.4767 10.4644 22.3587 10.4644ZM17.4072 21.4101C19.6966 21.4101 21.56 19.6209 21.56 17.4633C21.56 17.0949 21.5068 16.6739 21.4003 16.3582H22.5716V21.9363C22.5716 22.1994 22.3587 22.4625 22.0392 22.4625H12.7751C12.5089 22.4625 12.2427 22.252 12.2427 21.9363V16.3056H13.4673C13.3608 16.6739 13.3075 17.0423 13.3075 17.4107C13.2543 19.6209 15.1178 21.4101 17.4072 21.4101ZM17.4072 19.8314C15.9164 19.8314 14.7451 18.6736 14.7451 17.2528C14.7451 15.832 15.9164 14.6742 17.4072 14.6742C18.8979 14.6742 20.0693 15.832 20.0693 17.2528C20.0693 18.7263 18.8979 19.8314 17.4072 19.8314ZM22.5184 14.2006C22.5184 14.5164 22.2522 14.7795 21.9327 14.7795H20.442C20.1225 14.7795 19.8563 14.5164 19.8563 14.2006V12.7798C19.8563 12.4641 20.1225 12.2009 20.442 12.2009H21.9327C22.2522 12.2009 22.5184 12.4641 22.5184 12.7798V14.2006Z" fill="#C7C7C7"/>
</svg>
