<svg width="33" height="33" viewBox="0 0 33 33" fill="none" xmlns="http://www.w3.org/2000/svg">
<ellipse cx="16.2857" cy="16.9025" rx="16.2857" ry="16.0988" fill="#313131"/>
<path d="M23.3806 16.0291C23.3806 15.7169 23.328 15.3526 23.328 14.9363C23.2753 14.52 23.2227 14.1037 23.1701 13.7394C23.0648 13.3231 22.9069 13.0109 22.591 12.7507C22.3278 12.4905 21.9593 12.3344 21.5908 12.2824C20.3801 12.1263 18.5904 12.0742 16.1689 12.0742C13.7474 12.0742 11.905 12.1263 10.7469 12.2824C10.3784 12.3344 10.01 12.4905 9.74676 12.7507C9.48356 13.0109 9.27299 13.3231 9.16771 13.7394C9.06243 14.1037 9.0098 14.468 9.0098 14.9363C8.95716 15.3526 8.95715 15.7169 8.95715 16.0291C8.95715 16.3413 8.95715 16.7056 8.95715 17.2259C8.95715 17.7463 8.95715 18.1626 8.95715 18.4228C8.95715 18.735 9.0098 19.0993 9.0098 19.5156C9.06244 19.9319 9.11507 20.3482 9.16771 20.7125C9.27299 21.1288 9.43092 21.441 9.74676 21.7012C10.01 21.9614 10.3784 22.1175 10.7469 22.1695C11.9577 22.3256 13.7474 22.3777 16.1689 22.3777C18.5904 22.3777 20.4328 22.3256 21.5908 22.1695C21.9593 22.1175 22.3278 21.9614 22.591 21.7012C22.8542 21.441 23.0648 21.1288 23.1701 20.7125C23.2753 20.3482 23.328 19.984 23.328 19.5156C23.3806 19.0993 23.3806 18.735 23.3806 18.4228C23.3806 18.1106 23.3806 17.7463 23.3806 17.2259C23.3806 16.7056 23.3806 16.2893 23.3806 16.0291ZM18.9588 17.6423L14.8002 20.1921C14.7476 20.2441 14.6423 20.2962 14.537 20.2962C14.4318 20.2962 14.3791 20.2962 14.2738 20.2441C14.1159 20.1401 14.0106 19.984 14.0106 19.7758V14.6241C14.0106 14.4159 14.1159 14.2598 14.2738 14.1557C14.4318 14.0517 14.6423 14.0517 14.8002 14.1557L18.9588 16.7056C19.1167 16.8096 19.222 16.9658 19.222 17.1219C19.222 17.278 19.1167 17.5382 18.9588 17.6423Z" fill="#C7C7C7"/>
</svg>
