<svg width="254" height="41" viewBox="0 0 254 41" fill="none" xmlns="http://www.w3.org/2000/svg">
<path d="M64.6914 30L59.4097 18.1055L64.0117 7.41455H55.2466L51.0693 18.2612L51.0977 15.6558V7.41455H42.5308V30H51.0977V22.0137L51.9331 20.1587L55.5015 30H64.6914ZM74.207 5.80029V9.82178H66.1216V5.80029H74.207ZM74.207 30H66.1216V11.5918H74.207V30ZM89.4292 11.2095C91.3644 11.2189 92.8418 11.6815 93.8613 12.5972C94.8809 13.5129 95.3906 14.8581 95.3906 16.6328V30H87.3052V14.353H84.9404V30H76.855V11.5918H84.0767L84.6006 13.1777C85.0254 12.583 85.672 12.1063 86.5405 11.7476C87.409 11.3888 88.3719 11.2095 89.4292 11.2095ZM106.959 30.4248C106.374 30.4248 105.869 30.4201 105.444 30.4106C105.02 30.4012 104.529 30.3776 103.972 30.3398C103.415 30.3021 102.933 30.2454 102.527 30.1699C102.131 30.1038 101.697 30.0047 101.225 29.8726C100.762 29.7404 100.366 29.5846 100.035 29.4053C99.7142 29.2259 99.3885 28.9993 99.0581 28.7256C98.7371 28.4518 98.4775 28.145 98.2793 27.8052C98.0905 27.4653 97.9347 27.0641 97.812 26.6016C97.6987 26.139 97.6421 25.6292 97.6421 25.0723V16.5054C97.6421 15.9106 97.7129 15.3678 97.8545 14.877C98.0055 14.3766 98.2227 13.9518 98.5059 13.6025C98.7985 13.2533 99.1195 12.9465 99.4688 12.6821C99.8275 12.4084 100.252 12.1865 100.743 12.0166C101.234 11.8467 101.706 11.7051 102.159 11.5918C102.622 11.4785 103.15 11.3983 103.745 11.3511C104.349 11.2944 104.887 11.2567 105.359 11.2378C105.831 11.2189 106.369 11.2095 106.974 11.2095C107.71 11.2095 108.357 11.2236 108.914 11.252C109.48 11.2708 110.098 11.3228 110.769 11.4077C111.439 11.4927 112.015 11.6107 112.496 11.7617C112.987 11.9128 113.473 12.1204 113.955 12.3848C114.445 12.6491 114.842 12.9653 115.144 13.3335C115.456 13.7017 115.706 14.1548 115.895 14.6929C116.083 15.231 116.178 15.8398 116.178 16.5195V25.0864C116.178 25.8133 116.074 26.46 115.866 27.0264C115.668 27.5928 115.418 28.0648 115.116 28.4424C114.823 28.8105 114.412 29.1268 113.884 29.3911C113.365 29.646 112.878 29.8395 112.425 29.9717C111.972 30.1038 111.382 30.203 110.655 30.269C109.928 30.3446 109.324 30.387 108.843 30.3965C108.371 30.4154 107.743 30.4248 106.959 30.4248ZM105.728 26.7715H108.078V14.353H105.728V26.7715ZM135.988 16.4346L133.765 30.0142H127.718L125.665 16.4346H125.467L124.674 30H118.146L119.335 7.41455H128.823L130.621 20.4985H130.805L132.604 7.41455H142.105L143.294 30H136.979L136.186 16.4346H135.988ZM154.566 30.4248C153.981 30.4248 153.476 30.4201 153.051 30.4106C152.626 30.4012 152.135 30.3776 151.578 30.3398C151.021 30.3021 150.54 30.2454 150.134 30.1699C149.737 30.1038 149.303 30.0047 148.831 29.8726C148.368 29.7404 147.972 29.5846 147.642 29.4053C147.321 29.2259 146.995 28.9993 146.665 28.7256C146.344 28.4518 146.084 28.145 145.886 27.8052C145.697 27.4653 145.541 27.0641 145.418 26.6016C145.305 26.139 145.249 25.6292 145.249 25.0723V16.5054C145.249 15.9106 145.319 15.3678 145.461 14.877C145.612 14.3766 145.829 13.9518 146.112 13.6025C146.405 13.2533 146.726 12.9465 147.075 12.6821C147.434 12.4084 147.859 12.1865 148.35 12.0166C148.84 11.8467 149.312 11.7051 149.766 11.5918C150.228 11.4785 150.757 11.3983 151.352 11.3511C151.956 11.2944 152.494 11.2567 152.966 11.2378C153.438 11.2189 153.976 11.2095 154.58 11.2095C155.316 11.2095 155.963 11.2236 156.52 11.252C157.086 11.2708 157.705 11.3228 158.375 11.4077C159.045 11.4927 159.621 11.6107 160.103 11.7617C160.593 11.9128 161.08 12.1204 161.561 12.3848C162.052 12.6491 162.448 12.9653 162.75 13.3335C163.062 13.7017 163.312 14.1548 163.501 14.6929C163.69 15.231 163.784 15.8398 163.784 16.5195V25.0864C163.784 25.8133 163.68 26.46 163.473 27.0264C163.274 27.5928 163.024 28.0648 162.722 28.4424C162.43 28.8105 162.019 29.1268 161.49 29.3911C160.971 29.646 160.485 29.8395 160.032 29.9717C159.579 30.1038 158.989 30.203 158.262 30.269C157.535 30.3446 156.931 30.387 156.449 30.3965C155.977 30.4154 155.349 30.4248 154.566 30.4248ZM153.334 26.7715H155.685V14.353H153.334V26.7715ZM178.78 11.2095C180.715 11.2189 182.192 11.6815 183.212 12.5972C184.231 13.5129 184.741 14.8581 184.741 16.6328V30H176.656V14.353H174.291V30H166.206V11.5918H173.427L173.951 13.1777C174.376 12.583 175.023 12.1063 175.891 11.7476C176.76 11.3888 177.722 11.2095 178.78 11.2095ZM197.16 23.6846H197.174C197.098 23.5996 196.891 23.5335 196.551 23.4863C196.371 23.458 196.055 23.4155 195.602 23.3589C195.158 23.3022 194.809 23.2598 194.554 23.2314C194.309 23.1937 193.997 23.1465 193.62 23.0898C193.251 23.0238 192.912 22.9577 192.6 22.8916C192.289 22.8255 191.991 22.7547 191.708 22.6792C191.009 22.4904 190.372 22.245 189.796 21.9429C189.23 21.6408 188.706 21.2726 188.225 20.8384C187.753 20.4041 187.384 19.8849 187.12 19.2808C186.856 18.6672 186.724 17.9922 186.724 17.2559C186.724 16.529 186.809 15.8729 186.979 15.2876C187.148 14.7023 187.38 14.202 187.672 13.7866C187.965 13.3713 188.338 13.0125 188.791 12.7104C189.254 12.3989 189.74 12.1488 190.25 11.96C190.759 11.7712 191.349 11.6201 192.02 11.5068C192.69 11.3936 193.351 11.318 194.002 11.2803C194.653 11.2331 195.385 11.2095 196.197 11.2095C196.858 11.2095 197.424 11.2189 197.896 11.2378C198.377 11.2567 198.939 11.3039 199.581 11.3794C200.223 11.4549 200.771 11.5635 201.224 11.7051C201.677 11.8372 202.144 12.0355 202.625 12.2998C203.107 12.5641 203.494 12.8757 203.787 13.2344C204.079 13.5931 204.32 14.0509 204.509 14.6079C204.707 15.1554 204.806 15.7738 204.806 16.4629C204.806 17.1143 204.801 17.5107 204.792 17.6523L197.16 17.2275V14.9478H194.795V17.8081C194.88 17.8931 195.092 17.9639 195.432 18.0205C195.687 18.0583 196.187 18.1338 196.933 18.2471C197.679 18.3509 198.311 18.45 198.831 18.5444C199.35 18.6388 199.831 18.7474 200.275 18.8701C200.955 19.0589 201.573 19.2949 202.13 19.5781C202.696 19.8519 203.22 20.1965 203.702 20.6118C204.183 21.0177 204.561 21.5181 204.834 22.1128C205.108 22.6981 205.245 23.3447 205.245 24.0527C205.245 24.7702 205.174 25.4215 205.033 26.0068C204.901 26.5921 204.698 27.0972 204.424 27.522C204.16 27.9468 203.857 28.3197 203.518 28.6406C203.187 28.9616 202.781 29.2259 202.3 29.4336C201.818 29.6413 201.346 29.8159 200.884 29.9575C200.421 30.0897 199.883 30.1888 199.27 30.2549C198.656 30.321 198.09 30.3634 197.57 30.3823C197.051 30.4106 196.456 30.4248 195.786 30.4248C194.993 30.4248 194.309 30.4106 193.733 30.3823C193.157 30.354 192.548 30.2879 191.906 30.1841C191.264 30.0897 190.722 29.9575 190.278 29.7876C189.844 29.6082 189.414 29.3675 188.989 29.0654C188.564 28.7633 188.225 28.4046 187.97 27.9893C187.724 27.5645 187.526 27.05 187.375 26.4458C187.224 25.8416 187.148 25.1525 187.148 24.3784C187.148 24.1613 187.153 23.9961 187.163 23.8828L194.795 24.3359V26.7007H197.16V23.6846ZM218.796 30.0991C218.796 30.0991 218.768 30.1038 218.711 30.1133C218.655 30.1227 218.575 30.1322 218.471 30.1416C218.367 30.1605 218.244 30.1794 218.103 30.1982C217.97 30.2171 217.815 30.236 217.635 30.2549C217.456 30.2738 217.272 30.2879 217.083 30.2974C216.894 30.3162 216.687 30.3304 216.46 30.3398C216.243 30.3493 216.026 30.354 215.809 30.354C214.789 30.354 213.916 30.3257 213.189 30.269C212.472 30.2124 211.797 30.1086 211.164 29.9575C210.541 29.8065 210.031 29.6035 209.635 29.3486C209.238 29.0938 208.898 28.7633 208.615 28.3574C208.332 27.9515 208.129 27.4701 208.006 26.9131C207.884 26.3467 207.822 25.6812 207.822 24.9165V14.4238H205.882V11.5918H207.822V7.41455H215.908V11.5918H218.159V14.4238H215.908V25.3555C215.908 25.6481 215.983 25.8983 216.134 26.106C216.285 26.3042 216.502 26.4552 216.786 26.5591C217.069 26.6629 217.366 26.7384 217.678 26.7856C217.999 26.8234 218.372 26.8423 218.796 26.8423V30.0991ZM228.482 18.9976H230.861V14.353H228.482V18.9976ZM238.932 23.1606C239.008 23.7365 239.045 24.2227 239.045 24.6191C239.045 26.7337 238.29 28.23 236.78 29.1079C235.279 29.9858 232.914 30.4248 229.686 30.4248C229.129 30.4248 228.642 30.4201 228.227 30.4106C227.812 30.4012 227.33 30.3729 226.783 30.3257C226.235 30.2879 225.758 30.2313 225.353 30.1558C224.947 30.0897 224.508 29.9906 224.036 29.8584C223.573 29.7262 223.172 29.5705 222.832 29.3911C222.502 29.2023 222.171 28.971 221.841 28.6973C221.52 28.4235 221.256 28.1167 221.048 27.7769C220.85 27.4276 220.689 27.0169 220.566 26.5449C220.444 26.0729 220.382 25.5584 220.382 25.0015V16.5054C220.382 15.8162 220.486 15.1979 220.694 14.6504C220.902 14.0934 221.166 13.6356 221.487 13.2769C221.817 12.9087 222.242 12.5924 222.761 12.3281C223.29 12.0638 223.8 11.8608 224.291 11.7192C224.791 11.5776 225.381 11.4691 226.061 11.3936C226.74 11.3086 227.335 11.2567 227.845 11.2378C228.364 11.2189 228.968 11.2095 229.657 11.2095C230.195 11.2095 230.667 11.2142 231.073 11.2236C231.479 11.2331 231.951 11.2567 232.489 11.2944C233.037 11.3322 233.509 11.3888 233.905 11.4644C234.311 11.5304 234.75 11.6296 235.222 11.7617C235.694 11.8844 236.1 12.0355 236.44 12.2148C236.78 12.3942 237.115 12.6208 237.445 12.8945C237.776 13.1589 238.04 13.4609 238.238 13.8008C238.446 14.1312 238.611 14.5277 238.734 14.9902C238.866 15.4434 238.932 15.9437 238.932 16.4912V21.4473H228.482V27.1821H230.847V23.1606H238.932ZM241.283 30L241.297 11.5918H248.179L248.759 13.6733C249.071 12.9276 249.647 12.3376 250.487 11.9033C251.327 11.4691 252.304 11.2378 253.418 11.2095V16.562L249.368 17.355V30H241.283Z" fill="white"/>
<path fill-rule="evenodd" clip-rule="evenodd" d="M17.5 38C27.165 38 35 30.165 35 20.5C35 10.835 27.165 3 17.5 3C7.83502 3 0 10.835 0 20.5C0 30.165 7.83502 38 17.5 38ZM24.7348 19.0945L11.5659 15.5659L15.0945 28.7348L24.7348 19.0945Z" fill="white"/>
</svg>
